<mxfile host="app.diagrams.net" agent="Mozilla/5.0 (Windows NT 10.0; Win64; x64) AppleWebKit/537.36 (KHTML, like Gecko) Chrome/130.0.0.0 Safari/537.36" version="24.8.2">
  <diagram name="Page-1" id="1dJFzTws9CKSJNwfzrHA">
    <mxGraphModel dx="1500" dy="813" grid="1" gridSize="10" guides="1" tooltips="1" connect="1" arrows="1" fold="1" page="1" pageScale="1" pageWidth="850" pageHeight="1100" math="0" shadow="0">
      <root>
        <mxCell id="0" />
        <mxCell id="1" parent="0" />
        <mxCell id="qQeqbvSSo3nTj_RW2dlk-5" value="" style="edgeStyle=orthogonalEdgeStyle;rounded=0;orthogonalLoop=1;jettySize=auto;html=1;" edge="1" parent="1" source="qQeqbvSSo3nTj_RW2dlk-1" target="qQeqbvSSo3nTj_RW2dlk-4">
          <mxGeometry relative="1" as="geometry" />
        </mxCell>
        <mxCell id="qQeqbvSSo3nTj_RW2dlk-1" value="Ceramic Website" style="rounded=0;whiteSpace=wrap;html=1;" vertex="1" parent="1">
          <mxGeometry x="170" y="120" width="120" height="60" as="geometry" />
        </mxCell>
        <mxCell id="qQeqbvSSo3nTj_RW2dlk-3" value="" style="edgeStyle=orthogonalEdgeStyle;rounded=0;orthogonalLoop=1;jettySize=auto;html=1;" edge="1" parent="1" source="qQeqbvSSo3nTj_RW2dlk-2" target="qQeqbvSSo3nTj_RW2dlk-1">
          <mxGeometry relative="1" as="geometry" />
        </mxCell>
        <mxCell id="qQeqbvSSo3nTj_RW2dlk-2" value="Actor" style="shape=umlActor;verticalLabelPosition=bottom;verticalAlign=top;html=1;outlineConnect=0;" vertex="1" parent="1">
          <mxGeometry x="60" y="120" width="30" height="60" as="geometry" />
        </mxCell>
        <mxCell id="qQeqbvSSo3nTj_RW2dlk-4" value="" style="rounded=0;whiteSpace=wrap;html=1;" vertex="1" parent="1">
          <mxGeometry x="350" y="70" width="380" height="160" as="geometry" />
        </mxCell>
        <mxCell id="qQeqbvSSo3nTj_RW2dlk-9" value="" style="edgeStyle=orthogonalEdgeStyle;rounded=0;orthogonalLoop=1;jettySize=auto;html=1;" edge="1" parent="1" source="qQeqbvSSo3nTj_RW2dlk-6">
          <mxGeometry relative="1" as="geometry">
            <mxPoint x="450.0000000000002" y="280" as="targetPoint" />
          </mxGeometry>
        </mxCell>
        <mxCell id="qQeqbvSSo3nTj_RW2dlk-6" value="Carousel" style="rounded=0;whiteSpace=wrap;html=1;" vertex="1" parent="1">
          <mxGeometry x="390" y="120" width="120" height="60" as="geometry" />
        </mxCell>
        <mxCell id="qQeqbvSSo3nTj_RW2dlk-14" value="" style="edgeStyle=orthogonalEdgeStyle;rounded=0;orthogonalLoop=1;jettySize=auto;html=1;" edge="1" parent="1" source="qQeqbvSSo3nTj_RW2dlk-7" target="qQeqbvSSo3nTj_RW2dlk-13">
          <mxGeometry relative="1" as="geometry" />
        </mxCell>
        <mxCell id="qQeqbvSSo3nTj_RW2dlk-7" value="Products&lt;div&gt;with particular products&lt;/div&gt;" style="rounded=0;whiteSpace=wrap;html=1;" vertex="1" parent="1">
          <mxGeometry x="550" y="120" width="120" height="60" as="geometry" />
        </mxCell>
        <mxCell id="qQeqbvSSo3nTj_RW2dlk-12" value="" style="edgeStyle=orthogonalEdgeStyle;rounded=0;orthogonalLoop=1;jettySize=auto;html=1;" edge="1" parent="1" source="qQeqbvSSo3nTj_RW2dlk-10" target="qQeqbvSSo3nTj_RW2dlk-11">
          <mxGeometry relative="1" as="geometry" />
        </mxCell>
        <mxCell id="qQeqbvSSo3nTj_RW2dlk-10" value="Shop" style="ellipse;whiteSpace=wrap;html=1;" vertex="1" parent="1">
          <mxGeometry x="390" y="280" width="120" height="50" as="geometry" />
        </mxCell>
        <mxCell id="qQeqbvSSo3nTj_RW2dlk-15" value="" style="edgeStyle=orthogonalEdgeStyle;rounded=0;orthogonalLoop=1;jettySize=auto;html=1;" edge="1" parent="1" source="qQeqbvSSo3nTj_RW2dlk-11" target="qQeqbvSSo3nTj_RW2dlk-13">
          <mxGeometry relative="1" as="geometry" />
        </mxCell>
        <mxCell id="qQeqbvSSo3nTj_RW2dlk-11" value="Products Page" style="rounded=0;whiteSpace=wrap;html=1;" vertex="1" parent="1">
          <mxGeometry x="390" y="370" width="120" height="60" as="geometry" />
        </mxCell>
        <mxCell id="qQeqbvSSo3nTj_RW2dlk-17" value="" style="edgeStyle=orthogonalEdgeStyle;rounded=0;orthogonalLoop=1;jettySize=auto;html=1;" edge="1" parent="1" source="qQeqbvSSo3nTj_RW2dlk-13" target="qQeqbvSSo3nTj_RW2dlk-16">
          <mxGeometry relative="1" as="geometry" />
        </mxCell>
        <mxCell id="qQeqbvSSo3nTj_RW2dlk-13" value="Particular product" style="rounded=0;whiteSpace=wrap;html=1;" vertex="1" parent="1">
          <mxGeometry x="550" y="370" width="120" height="60" as="geometry" />
        </mxCell>
        <mxCell id="qQeqbvSSo3nTj_RW2dlk-19" value="" style="edgeStyle=orthogonalEdgeStyle;rounded=0;orthogonalLoop=1;jettySize=auto;html=1;" edge="1" parent="1" source="qQeqbvSSo3nTj_RW2dlk-16" target="qQeqbvSSo3nTj_RW2dlk-18">
          <mxGeometry relative="1" as="geometry" />
        </mxCell>
        <mxCell id="qQeqbvSSo3nTj_RW2dlk-16" value="Add to cart" style="rounded=0;whiteSpace=wrap;html=1;" vertex="1" parent="1">
          <mxGeometry x="550" y="490" width="120" height="60" as="geometry" />
        </mxCell>
        <mxCell id="qQeqbvSSo3nTj_RW2dlk-18" value="Buy Now Page" style="rounded=0;whiteSpace=wrap;html=1;" vertex="1" parent="1">
          <mxGeometry x="550" y="600" width="120" height="60" as="geometry" />
        </mxCell>
      </root>
    </mxGraphModel>
  </diagram>
</mxfile>
